<?xml version="1.0" encoding="utf-8"?>
<!-- Svg Vector Icons : http://www.onlinewebfonts.com/icon -->
<!DOCTYPE svg PUBLIC "-//W3C//DTD SVG 1.1//EN" "http://www.w3.org/Graphics/SVG/1.1/DTD/svg11.dtd">
<svg version="1.1" xmlns="http://www.w3.org/2000/svg" xmlns:xlink="http://www.w3.org/1999/xlink" x="0px" y="0px" viewBox="0 0 256 256" enable-background="new 0 0 256 256" xml:space="preserve">
<metadata> Svg Vector Icons : http://www.onlinewebfonts.com/icon </metadata>
<g><g><g><path fill="#000000" d="M16,11c-4.1,1.8-6.4,6.4-5.5,11.2c0.4,2.1,6.2,8.2,52,54l51.7,51.7l-51.7,51.7c-56,56.1-53.2,52.9-52.1,58.6c0.6,2.9,4.5,6.8,7.4,7.4c5.6,1,2.5,3.9,58.6-52.1l51.7-51.7l51.7,51.7c56,56,52.8,53.2,58.5,52.1c2.9-0.6,6.8-4.5,7.4-7.4c1-5.6,3.9-2.5-52.1-58.6L141.8,128l51.7-51.7c56-56,53.2-52.8,52.1-58.5c-0.6-2.9-4.5-6.8-7.4-7.4c-5.6-1-2.5-3.9-58.6,52.1L128,114.2L76.6,62.8C47.8,34,24.4,11.1,23.5,10.8C21.1,9.9,18.3,10,16,11z"/></g></g></g>
</svg>